{"title":"Kim Cesarion - Undressed [Music Video] 720p [Sbyky]","uid":9865663,"size":34535942,"categoryP":"video","categoryS":"music_videos","magnet":"?xt=urn:btih:346bdd3812b0920300d3a5426dd3d5cd4cc9580b&amp;dn=Kim+Cesarion+-+Undressed+%5BMusic+Video%5D+720p+%5BSbyky%5D&amp;tr=udp%3A%2F%2Ftracker.openbittorrent.com%3A80&amp;tr=udp%3A%2F%2Fopen.demonii.com%3A1337&amp;tr=udp%3A%2F%2Ftracker.coppersurfer.tk%3A6969&amp;tr=udp%3A%2F%2Fexodus.desync.com%3A6969","seeders":0,"leechers":1,"uploader":"Sbyky","files":1,"time":1396348978,"description":"\n\nGeneral\nComplete name                            : Kim Cesarion - Undressed [Music Video] 720p [Sbyky].MP4\nFormat                                   : MPEG-4\nFormat profile                           : Base Media\nCodec ID                                 : isom\nFile size                                : 32.9 MiB\nDuration                                 : 3mn 53s\nOverall bit rate mode                    : Variable\nOverall bit rate                         : 1 183 Kbps\nEncoded date                             : UTC 2014-01-07 09:33:56\nTagged date                              : UTC 2014-01-07 09:33:56\n\nVideo\nID                                       : 1\nFormat                                   : AVC\nFormat/Info                              : Advanced Video Codec\nFormat profile                           : &lt;a class=&quot;__cf_email__&quot; href=&quot;/cdn-cgi/l/email-protection&quot; data-cfemail=&quot;98d5f9f1f6d8d4abb6a9&quot;&gt;[email&amp;#160;protected]&lt;/a&gt;&lt;script cf-hash='f9e31' type=&quot;text/javascript&quot;&gt;\n/* &lt;![CDATA[ */!function(){try{var t=&quot;currentScript&quot;in document?document.currentScript:function(){for(var t=document.getElementsByTagName(&quot;script&quot;),e=t.length;e--;)if(t[e].getAttribute(&quot;cf-hash&quot;))return t[e]}();if(t&amp;&amp;t.previousSibling){var e,r,n,i,c=t.previousSibling,a=c.getAttribute(&quot;data-cfemail&quot;);if(a){for(e=&quot;&quot;,r=parseInt(a.substr(0,2),16),n=2;a.length-n;n+=2)i=parseInt(a.substr(n,2),16)^r,e+=String.fromCharCode(i);e=document.createTextNode(e),c.parentNode.replaceChild(e,c)}}}catch(u){}}();/* ]]&gt; */&lt;/script&gt;\nFormat settings, CABAC                   : Yes\nFormat settings, ReFrames                : 3 frames\nCodec ID                                 : avc1\nCodec ID/Info                            : Advanced Video Coding\nDuration                                 : 3mn 53s\nBit rate                                 : 1 054 Kbps\nWidth                                    : 1 280 pixels\nHeight                                   : 720 pixels\nDisplay aspect ratio                     : 16:9\nFrame rate mode                          : Constant\nFrame rate                               : 25.000 fps\nColor space                              : YUV\nChroma subsampling                       : 4:2:0\nBit depth                                : 8 bits\nScan type                                : Progressive\nBits/(Pixel*Frame)                       : 0.046\nStream size                              : 29.3 MiB (89%)\nEncoded date                             : UTC 2014-01-07 09:33:56\nTagged date                              : UTC 2014-01-07 09:33:56\n\nAudio\nID                                       : 2\nFormat                                   : AAC\nFormat/Info                              : Advanced Audio Codec\nFormat profile                           : LC\nCodec ID                                 : 40\nDuration                                 : 3mn 53s\nBit rate mode                            : Variable\nBit rate                                 : 126 Kbps\nChannel(s)                               : 2 channels\nChannel positions                        : Front: L R\nSampling rate                            : 44.1 KHz\nCompression mode                         : Lossy\nStream size                              : 3.50 MiB (11%)\nEncoded date                             : UTC 2014-01-07 09:31:07\nTagged date                              : UTC 2014-01-07 09:31:07\n\nShared By Sbyky\n","torrent":{"xt":"urn:btih:346bdd3812b0920300d3a5426dd3d5cd4cc9580b","amp;dn":"Kim+Cesarion+-+Undressed+%5BMusic+Video%5D+720p+%5BSbyky%5D","amp;tr":["udp%3A%2F%2Ftracker.openbittorrent.com%3A80","udp%3A%2F%2Fopen.demonii.com%3A1337","udp%3A%2F%2Ftracker.coppersurfer.tk%3A6969","udp%3A%2F%2Fexodus.desync.com%3A6969"],"infoHash":"346bdd3812b0920300d3a5426dd3d5cd4cc9580b","infoHashBuffer":{"type":"Buffer","data":[52,107,221,56,18,176,146,3,0,211,165,66,109,211,213,205,76,201,88,11]},"announce":[],"urlList":[]}}